<?xml version="1.0" encoding="UTF-8" standalone="no"?>
<!DOCTYPE svg PUBLIC "-//W3C//DTD SVG 1.1//EN" "http://www.w3.org/Graphics/SVG/1.1/DTD/svg11.dtd">
<svg width="100%" height="100%" viewBox="0 0 1700 739" version="1.1" xmlns="http://www.w3.org/2000/svg" xmlns:xlink="http://www.w3.org/1999/xlink" xml:space="preserve" xmlns:serif="http://www.serif.com/" style="fill-rule:evenodd;clip-rule:evenodd;stroke-linejoin:round;stroke-miterlimit:1.41421;">
    <g transform="matrix(1,0,0,1,-871,-1)">
        <g transform="matrix(1.61905,0,0,1.57569,871,22.0597)">
            <g transform="matrix(1,0,0,1.02751,0,-13.3654)">
                <g transform="matrix(0.972729,0,0,0.972729,-1.94546,8.07398)">
                    <path d="M2,458.717L2,353.437L28.32,353.437C44.582,353.437 56.94,357.931 65.392,366.918C73.844,375.905 78.071,388.798 78.071,405.595C78.071,413.941 77.001,421.403 74.861,427.983C72.721,434.563 69.565,440.127 65.392,444.674C61.22,449.221 56.084,452.698 49.985,455.106C43.887,457.513 36.879,458.717 28.962,458.717L2,458.717ZM15.32,447.803L27.357,447.803C39.661,447.803 48.889,444.112 55.041,436.73C61.193,429.347 64.269,418.969 64.269,405.595C64.269,392.222 61.193,382.004 55.041,374.943C48.889,367.881 39.661,364.35 27.357,364.35L15.32,364.35L15.32,447.803Z" style="fill-rule:nonzero;"/>
                    <path d="M100.699,458.717L100.699,353.437L161.363,353.437L161.363,364.671L114.02,364.671L114.02,397.732L153.981,397.732L153.981,409.126L114.02,409.126L114.02,447.322L162.968,447.322L162.968,458.717L100.699,458.717Z" style="fill-rule:nonzero;"/>
                    <path d="M217.373,458.717L217.373,353.437L247.384,353.437C253.268,353.437 258.645,353.972 263.513,355.042C268.381,356.112 272.527,357.851 275.95,360.258C279.374,362.665 282.049,365.848 283.975,369.807C285.901,373.766 286.864,378.634 286.864,384.411C286.864,389.975 285.927,394.789 284.055,398.855C282.183,402.921 279.535,406.291 276.111,408.966C272.687,411.64 268.595,413.647 263.834,414.984C259.073,416.321 253.803,416.99 248.026,416.99L230.693,416.99L230.693,458.717L217.373,458.717ZM230.693,406.077L246.421,406.077C255.622,406.077 262.443,404.338 266.883,400.861C271.323,397.384 273.543,391.901 273.543,384.411C273.543,376.815 271.216,371.546 266.562,368.603C261.908,365.661 254.98,364.19 245.779,364.19L230.693,364.19L230.693,406.077Z" style="fill-rule:nonzero;"/>
                    <rect x="308.208" y="353.437" width="13.32" height="105.279"/>
                    <path d="M372.242,458.717L372.242,364.671L340.466,364.671L340.466,353.437L417.5,353.437L417.5,364.671L385.723,364.671L385.723,458.717L372.242,458.717Z" style="fill-rule:nonzero;"/>
                    <path d="M459.386,460.642C452.004,460.642 445.157,459.251 438.844,456.47C432.532,453.688 427.075,449.89 422.475,445.075L430.499,435.767C434.244,439.726 438.657,442.909 443.739,445.316C448.821,447.723 454.09,448.927 459.547,448.927C466.501,448.927 471.904,447.349 475.756,444.192C479.608,441.036 481.534,436.89 481.534,431.755C481.534,429.08 481.079,426.806 480.169,424.934C479.26,423.062 478.03,421.457 476.478,420.12C474.927,418.782 473.081,417.578 470.942,416.509C468.802,415.439 466.501,414.315 464.041,413.138L448.955,406.558C446.494,405.489 443.98,404.205 441.412,402.707C438.844,401.209 436.544,399.39 434.511,397.25C432.478,395.11 430.82,392.569 429.536,389.627C428.252,386.685 427.61,383.288 427.61,379.436C427.61,375.478 428.439,371.786 430.098,368.363C431.756,364.939 434.056,361.97 436.999,359.456C439.941,356.941 443.418,354.989 447.43,353.598C451.442,352.207 455.856,351.512 460.67,351.512C466.983,351.512 472.814,352.715 478.163,355.122C483.513,357.53 488.06,360.659 491.805,364.511L484.583,373.177C481.373,370.074 477.816,367.64 473.911,365.875C470.005,364.11 465.592,363.227 460.67,363.227C454.786,363.227 450.052,364.591 446.467,367.319C442.883,370.048 441.091,373.819 441.091,378.634C441.091,381.202 441.599,383.368 442.616,385.133C443.632,386.899 444.996,388.45 446.708,389.788C448.42,391.125 450.292,392.302 452.325,393.318C454.358,394.335 456.444,395.271 458.584,396.127L473.509,402.546C476.505,403.83 479.34,405.301 482.015,406.96C484.69,408.618 486.99,410.544 488.916,412.737C490.842,414.93 492.366,417.498 493.49,420.44C494.613,423.383 495.175,426.78 495.175,430.631C495.175,434.804 494.346,438.709 492.687,442.347C491.029,445.985 488.649,449.168 485.546,451.896C482.443,454.624 478.698,456.764 474.312,458.315C469.925,459.867 464.95,460.642 459.386,460.642Z" style="fill-rule:nonzero;"/>
                    <path d="M547.975,458.717L547.975,353.437L561.295,353.437L561.295,406.237L561.777,406.237L605.59,353.437L620.675,353.437L587.776,393.559L625.811,458.717L610.886,458.717L579.43,403.991L561.295,425.335L561.295,458.717L547.975,458.717Z" style="fill-rule:nonzero;"/>
                    <path d="M640.897,458.717L640.897,353.437L701.561,353.437L701.561,364.671L654.217,364.671L654.217,397.732L694.178,397.732L694.178,409.126L654.217,409.126L654.217,447.322L703.165,447.322L703.165,458.717L640.897,458.717Z" style="fill-rule:nonzero;"/>
                    <path d="M762.866,460.642C757.517,460.642 752.515,459.867 747.861,458.315C743.207,456.764 739.195,454.196 735.824,450.612C732.454,447.028 729.806,442.347 727.88,436.569C725.955,430.792 724.992,423.677 724.992,415.225L724.992,353.437L738.312,353.437L738.312,415.546C738.312,421.858 738.954,427.154 740.238,431.434C741.522,435.713 743.26,439.137 745.454,441.705C747.647,444.273 750.242,446.118 753.237,447.242C756.233,448.365 759.443,448.927 762.866,448.927C766.397,448.927 769.66,448.365 772.656,447.242C775.652,446.118 778.273,444.273 780.52,441.705C782.767,439.137 784.532,435.713 785.816,431.434C787.1,427.154 787.742,421.858 787.742,415.546L787.742,353.437L800.581,353.437L800.581,415.225C800.581,423.677 799.618,430.792 797.692,436.569C795.766,442.347 793.118,447.028 789.748,450.612C786.378,454.196 782.392,456.764 777.792,458.315C773.191,459.867 768.216,460.642 762.866,460.642Z" style="fill-rule:nonzero;"/>
                    <path d="M828.987,458.717L828.987,353.437L842.307,353.437L842.307,406.237L842.789,406.237L886.602,353.437L901.687,353.437L868.788,393.559L906.823,458.717L891.898,458.717L860.442,403.991L842.307,425.335L842.307,458.717L828.987,458.717Z" style="fill-rule:nonzero;"/>
                    <path d="M921.909,458.717L921.909,353.437L982.572,353.437L982.572,364.671L935.229,364.671L935.229,397.732L975.19,397.732L975.19,409.126L935.229,409.126L935.229,447.322L984.177,447.322L984.177,458.717L921.909,458.717Z" style="fill-rule:nonzero;"/>
                    <path d="M1006.49,458.717L1006.49,353.437L1020.29,353.437L1058.33,419.558L1069.72,441.384L1070.36,441.384C1070.04,436.034 1069.69,430.498 1069.32,424.774C1068.95,419.05 1068.76,413.406 1068.76,407.842L1068.76,353.437L1081.44,353.437L1081.44,458.717L1067.63,458.717L1029.44,392.436L1018.05,370.77L1017.4,370.77C1017.83,376.119 1018.23,381.549 1018.61,387.059C1018.98,392.569 1019.17,398.106 1019.17,403.67L1019.17,458.717L1006.49,458.717Z" style="fill-rule:nonzero;"/>
                </g>
                <g id="mes-vork-5--Group-" serif:id="mes vork 5 (Group)" transform="matrix(1.00469,0,0,1.00469,720.233,-2.1477)">
                    <g id="mes-" serif:id="mes " transform="matrix(1.05512,0,0,1.01665,-7.27846,-0.036363)">
                        <path d="M143.119,138.136C143.119,138.136 307.912,276.54 315.452,284.03C327.092,300.374 295.81,334.247 276.968,323.035C264.411,315.57 138.428,161.49 121.864,159.391C105.305,157.289 94.65,163.797 84.709,158.714C74.763,153.624 -10.894,30.934 9.929,8.555C12.386,5.577 18.551,-0.594 22.141,3.601C25.713,7.794 136.91,138.123 143.119,138.136Z" style="fill:rgb(242,13,13);fill-rule:nonzero;"/>
                    </g>
                    <g id="vork" transform="matrix(1,0,0,1.00597,-2.13718e-15,-0.0127601)">
                        <path d="M253.488,128.32C264.913,119.921 327.697,40.036 328.136,39.299C328.422,37.508 328.214,34.96 324.924,36.068C321.635,37.176 276.219,82.494 275.042,83.695C273.869,84.894 269.02,80.07 270.058,79.039C277.964,71.128 316.329,29.385 316.61,27.704C316.899,26.023 316.699,23.37 313.403,24.477C310.109,25.581 263.524,72.101 263.524,72.101C262.107,72.49 258.403,70.246 258.397,67.635C258.394,66.009 305.031,20.497 306.154,17.222C307.273,13.943 304.607,13.731 302.923,14.01C301.24,14.29 259.195,52.151 251.235,60.001C250.193,61.036 245.135,56.16 246.348,54.995C247.558,53.827 293.179,8.721 294.301,5.439C295.424,2.164 292.864,1.944 291.071,2.227C290.329,2.662 209.967,64.962 201.502,76.328C193.041,87.691 193.322,103.896 194.498,112.759C195.672,121.615 184.532,129.217 184.532,129.217C184.532,129.217 10.387,277.44 2.41,285.437C2.382,285.473 2.371,285.524 2.347,285.557L2.139,285.714C1.81,286.253 1.657,286.829 1.398,287.388C1.064,288.061 0.722,288.719 0.496,289.425C0.409,289.715 0.375,290.009 0.303,290.301C0.052,291.283 -0.148,292.272 -0.214,293.307C-0.258,293.987 -0.209,294.671 -0.18,295.36C-0.149,295.908 -0.16,296.456 -0.092,297.016C0.673,303.631 4.499,310.415 9.797,316.014C10.2,316.461 10.597,316.89 11.018,317.311L11.059,317.352C11.48,317.773 11.913,318.174 12.356,318.573C17.957,323.872 24.753,327.705 31.385,328.492C31.95,328.567 32.497,328.553 33.05,328.591C33.741,328.621 34.432,328.676 35.109,328.631C36.148,328.568 37.138,328.376 38.128,328.126C38.425,328.058 38.724,328.03 39.012,327.94C39.717,327.721 40.381,327.378 41.054,327.044C41.62,326.792 42.198,326.641 42.74,326.315L42.895,326.104C42.93,326.077 42.986,326.07 43.019,326.046C51.069,318.123 200.366,145.057 200.366,145.057C200.366,145.057 208.031,133.98 216.917,135.184C225.797,136.377 242.059,136.715 253.488,128.32ZM9.118,315.165C9.027,315.068 8.981,315.016 9.025,315.054C9.059,315.094 9.088,315.129 9.118,315.165Z" style="fill:rgb(242,13,13);fill-rule:nonzero;"/>
                    </g>
                </g>
                <g id="lepel-mes-4--Group-" serif:id="lepel mes 4 (Group)" transform="matrix(0.970586,0,0,0.970586,-719.587,-4.47086)">
                    <g id="mes-1" serif:id="mes " transform="matrix(1.01332,0,0,1.05687,-14.4265,-0.261949)">
                        <path d="M939.977,145.597C939.977,145.597 795.169,315.782 787.361,323.589C770.426,335.727 736.498,304.49 748.345,285.114C756.233,272.202 916.229,141.238 918.722,124.342C921.219,107.451 914.798,96.722 920.199,86.514C925.606,76.3 1052.7,-13.062 1075.11,7.733C1078.1,10.181 1084.27,16.346 1079.91,20.075C1075.55,23.785 940.121,139.277 939.977,145.597Z" style="fill:rgb(242,13,13);fill-rule:nonzero;"/>
                    </g>
                    <g id="lepel" transform="matrix(1.05774,0,0,1.05304,-42.8111,-2.13265)">
                        <path d="M751.746,16.621C766.191,0.899 806.376,2.865 837.195,25.646C868.016,48.43 865.858,84.348 865.863,102.066C865.857,114.657 870.92,121.418 873.366,123.962C874.515,124.968 1051.59,280.162 1059.79,288.358C1059.82,288.39 1059.83,288.434 1059.86,288.476L1060.07,288.641C1060.42,289.176 1060.6,289.761 1060.88,290.319C1061.25,290.988 1061.62,291.653 1061.87,292.358C1061.98,292.652 1062.01,292.939 1062.11,293.23C1062.39,294.212 1062.65,295.192 1062.75,296.214C1062.83,296.882 1062.81,297.558 1062.81,298.233C1062.82,298.78 1062.86,299.317 1062.81,299.857C1062.39,306.331 1058.96,312.835 1054.03,318.114C1053.66,318.531 1053.28,318.941 1052.89,319.331C1052.5,319.726 1052.09,320.101 1051.67,320.469C1046.4,325.388 1039.89,328.829 1033.42,329.251C1032.88,329.3 1032.34,329.262 1031.78,329.26C1031.11,329.25 1030.44,329.272 1029.77,329.19C1028.76,329.078 1027.77,328.833 1026.79,328.546C1026.5,328.45 1026.21,328.419 1025.92,328.309C1025.22,328.057 1024.55,327.686 1023.87,327.329C1023.31,327.052 1022.74,326.866 1022.19,326.519L1022.03,326.301C1021.99,326.271 1021.95,326.257 1021.91,326.236C1013.68,318.011 860.168,139.683 860.168,139.683C860.168,139.683 853.655,130.864 837.063,130.865C819.342,130.864 783.42,133.026 760.639,102.201C737.863,71.372 735.892,31.197 751.615,16.753" style="fill:rgb(242,13,13);fill-rule:nonzero;"/>
                    </g>
                </g>
                <g id="lepel-vork" serif:id="lepel vork" transform="matrix(0.981223,0,0,0.981223,0.533868,-1.99133)">
                    <g id="lepel1" serif:id="lepel" transform="matrix(1.04138,0,0,1.04609,-29.0744,-5.89377)">
                        <path d="M692.174,18.191C708.083,32.824 706.382,73.219 683.685,104.053C660.986,134.89 624.853,132.473 607.037,132.357C594.375,132.265 587.612,137.31 585.071,139.752C584.067,140.9 429.224,317.896 421.038,326.083C421.006,326.114 420.962,326.128 420.92,326.155L420.755,326.365C420.22,326.718 419.633,326.894 419.074,327.172C418.403,327.53 417.738,327.9 417.03,328.151C416.735,328.256 416.447,328.285 416.155,328.38C415.169,328.658 414.185,328.912 413.159,329.003C412.488,329.081 411.807,329.054 411.129,329.055C410.579,329.058 410.04,329.096 409.495,329.047C402.983,328.578 396.419,325.08 391.077,320.087C390.655,319.71 390.241,319.334 389.846,318.938C389.446,318.539 389.066,318.121 388.693,317.703C383.711,312.365 380.206,305.801 379.737,299.288C379.685,298.741 379.719,298.197 379.717,297.643C379.722,296.969 379.696,296.288 379.774,295.617C379.879,294.599 380.118,293.607 380.4,292.625C380.495,292.333 380.524,292.045 380.633,291.754C380.881,291.049 381.25,290.384 381.604,289.703C381.879,289.139 382.062,288.561 382.407,288.017L382.625,287.86C382.656,287.815 382.669,287.771 382.69,287.735C390.905,279.52 569.171,126.373 569.171,126.373C569.171,126.373 577.995,119.884 577.88,103.199C577.759,85.38 575.339,49.243 606.18,26.547C637.024,3.855 677.409,2.15 692.041,18.058" style="fill:rgb(242,13,13);fill-rule:nonzero;"/>
                    </g>
                    <g id="vork1" serif:id="vork" transform="matrix(1.02855,0,0,1.02844,-10.4603,-0.0577118)">
                        <path d="M492.662,76.363C484.247,64.987 404.248,2.554 403.509,2.118C401.717,1.838 399.167,2.051 400.278,5.33C401.39,8.608 446.78,53.801 447.983,54.971C449.184,56.139 444.36,60.987 443.327,59.954C435.404,52.087 393.596,13.92 391.913,13.643C390.231,13.359 387.576,13.565 388.687,16.851C389.794,20.133 436.388,66.489 436.388,66.489C436.779,67.902 434.535,71.602 431.923,71.614C430.295,71.621 384.709,25.211 381.431,24.099C378.149,22.991 377.938,25.65 378.219,27.329C378.5,29.008 416.425,70.856 424.288,78.777C425.324,79.813 420.448,84.87 419.281,83.663C418.111,82.459 372.932,37.062 369.647,35.95C366.368,34.838 366.151,37.392 366.435,39.181C366.871,39.919 429.284,119.929 440.666,128.345C452.044,136.757 468.263,136.437 477.132,135.243C485.995,134.05 493.612,145.144 493.612,145.144C493.612,145.144 642.092,318.493 650.101,326.431C650.137,326.458 650.189,326.469 650.221,326.493L650.379,326.7C650.918,327.027 651.495,327.179 652.055,327.436C652.729,327.767 653.387,328.107 654.093,328.33C654.384,328.417 654.678,328.449 654.971,328.521C655.954,328.769 656.944,328.966 657.98,329.029C658.66,329.071 659.345,329.02 660.035,328.991C660.582,328.958 661.132,328.968 661.691,328.898C668.312,328.119 675.098,324.286 680.698,318.988C681.145,318.585 681.574,318.188 681.995,317.767L682.036,317.726C682.457,317.305 682.858,316.872 683.257,316.429C688.556,310.83 692.388,304.041 693.17,297.424C693.244,296.86 693.231,296.315 693.267,295.763C693.297,295.073 693.352,294.384 693.306,293.708C693.243,292.672 693.049,291.685 692.798,290.699C692.731,290.402 692.702,290.104 692.612,289.817C692.392,289.115 692.049,288.453 691.714,287.782C691.461,287.219 691.309,286.642 690.982,286.102L690.772,285.949C690.744,285.913 690.737,285.857 690.713,285.825C682.777,277.814 509.453,129.312 509.453,129.312C509.453,129.312 498.361,121.693 499.559,112.826C500.746,103.965 501.073,87.743 492.662,76.363ZM679.849,319.667C679.752,319.758 679.7,319.804 679.737,319.76C679.777,319.727 679.813,319.697 679.849,319.667Z" style="fill:rgb(242,13,13);fill-rule:nonzero;"/>
                    </g>
                </g>
            </g>
        </g>
    </g>
</svg>
